<svg width="42" height="42" viewBox="0 0 42 42" fill="none" xmlns="http://www.w3.org/2000/svg">
<g clip-path="url(#clip0_0_257)">
<path d="M21 0C9.40197 0 0 9.40197 0 21C0 32.5979 9.40197 41.9999 21 41.9999C32.5979 41.9999 41.9999 32.5979 41.9999 21C41.9869 9.40745 32.5925 0.0130965 21 0Z" fill="url(#paint0_linear_0_257)"/>
<path d="M21.4749 10.2718C21.2082 10.0161 20.7915 10.0161 20.5248 10.2718L11.1173 19.841C10.8546 20.1073 10.8541 20.5396 11.1161 20.8066C11.2422 20.935 11.4133 21.0071 11.5918 21.0072H16.2955V31.2372C16.2955 31.6143 16.5964 31.92 16.9675 31.92H25.031C25.4021 31.92 25.703 31.6143 25.703 31.2372V21.0072H30.4067C30.7779 21.0079 31.0792 20.7027 31.0799 20.3256C31.0802 20.1439 31.0092 19.9694 30.8825 19.841L21.4749 10.2718Z" fill="#FAFAFA"/>
</g>
<defs>
<linearGradient id="paint0_linear_0_257" x1="-8.67998" y1="-6.01999" x2="41.9999" y2="46.6199" gradientUnits="userSpaceOnUse">
<stop offset="0.135888" stop-color="#9D79FF"/>
<stop offset="0.911426" stop-color="#7747FD"/>
</linearGradient>
<clipPath id="clip0_0_257">
<rect width="42" height="42" fill="white"/>
</clipPath>
</defs>
</svg>
