<svg width="236" height="232" viewBox="0 0 236 232" fill="none" xmlns="http://www.w3.org/2000/svg">
<g filter="url(#filter0_f_0_77)">
<ellipse cx="132.5" cy="146.5" rx="63.5" ry="45.5" fill="#401BA6" fill-opacity="0.5"/>
</g>
<g clip-path="url(#clip0_0_77)">
<path d="M202.999 56V140C202.999 141.857 202.261 143.637 200.948 144.95C199.636 146.263 197.855 147 195.999 147H69.9985C68.142 147 66.3615 146.263 65.0488 144.95C63.736 143.637 62.9985 141.857 62.9985 140V49H195.999C197.855 49 199.636 49.7375 200.948 51.0503C202.261 52.363 202.999 54.1435 202.999 56ZM135.897 35H62.9985V28C62.9985 26.1435 63.736 24.363 65.0488 23.0503C66.3615 21.7375 68.142 21 69.9985 21H121.897L135.897 35Z" fill="#FFCC47"/>
<mask id="mask0_0_77" style="mask-type:alpha" maskUnits="userSpaceOnUse" x="62" y="21" width="141" height="126">
<path d="M202.999 56V140C202.999 141.857 202.261 143.637 200.948 144.95C199.636 146.263 197.855 147 195.999 147H69.9985C68.142 147 66.3615 146.263 65.0488 144.95C63.736 143.637 62.9985 141.857 62.9985 140V49H195.999C197.855 49 199.636 49.7375 200.948 51.0503C202.261 52.363 202.999 54.1435 202.999 56ZM135.897 35H62.9985V28C62.9985 26.1435 63.736 24.363 65.0488 23.0503C66.3615 21.7375 68.142 21 69.9985 21H121.897L135.897 35Z" fill="#FFD362"/>
</mask>
<g mask="url(#mask0_0_77)">
<rect x="62.9985" y="21" width="140" height="21" fill="#F7C137"/>
</g>
</g>
<g filter="url(#filter1_f_0_77)">
<ellipse cx="99.5" cy="138" rx="59.5" ry="43" fill="#3D3D3D" fill-opacity="0.3"/>
</g>
<path d="M126.926 124.303C125.088 112.109 114.886 102.75 102.609 102.75C97.991 102.75 93.5531 104.074 89.7039 106.544C83.848 96.3458 73.3056 90 61.5938 90C43.5012 90 28.7812 105.253 28.7812 124C28.7812 124.116 28.7812 124.237 28.7854 124.353C17.1574 126.382 8 136.887 8 149.5C8 163.562 19.3124 175 32.8828 175H123.117C136.688 175 148 163.562 148 149.5C148 136.779 138.694 126.208 126.926 124.303Z" fill="white"/>
<defs>
<filter id="filter0_f_0_77" x="29" y="61" width="207" height="171" filterUnits="userSpaceOnUse" color-interpolation-filters="sRGB">
<feFlood flood-opacity="0" result="BackgroundImageFix"/>
<feBlend mode="normal" in="SourceGraphic" in2="BackgroundImageFix" result="shape"/>
<feGaussianBlur stdDeviation="20" result="effect1_foregroundBlur_0_77"/>
</filter>
<filter id="filter1_f_0_77" x="0" y="55" width="199" height="166" filterUnits="userSpaceOnUse" color-interpolation-filters="sRGB">
<feFlood flood-opacity="0" result="BackgroundImageFix"/>
<feBlend mode="normal" in="SourceGraphic" in2="BackgroundImageFix" result="shape"/>
<feGaussianBlur stdDeviation="20" result="effect1_foregroundBlur_0_77"/>
</filter>
<clipPath id="clip0_0_77">
<rect width="168" height="168" fill="white" transform="translate(49)"/>
</clipPath>
</defs>
</svg>
