<svg width="62" height="53" viewBox="0 0 62 53" fill="none" xmlns="http://www.w3.org/2000/svg">
<rect x="35.9097" width="29.8197" height="29.8197" rx="2" transform="rotate(30 35.9097 0)" fill="#52F062"/>
<path d="M44.3054 30.9346L31.6081 51.2842C31.4707 51.508 31.2905 51.7025 31.0778 51.8566C30.8652 52.0108 30.6242 52.1216 30.3688 52.1826C30.1133 52.2436 29.8483 52.2538 29.589 52.2124C29.3296 52.171 29.0809 52.079 28.8571 51.9415L1.68473 34.9871C1.23815 34.7084 0.920465 34.2639 0.801463 33.7512C0.68246 33.2384 0.77188 32.6994 1.05007 32.2526L20.1241 1.68321C20.6926 0.772039 21.9328 0.47325 22.8677 1.05661L39.839 11.646L33.4866 21.8267C33.2058 22.2767 33.1153 22.8198 33.235 23.3366C33.3546 23.8534 33.6747 24.3014 34.1247 24.5822L44.3054 30.9346ZM46.4229 27.541L37.9389 22.2474L43.2294 13.7685L46.4229 27.541ZM24.3646 13.7776L22.2472 17.1711L27.3375 20.3473L29.455 16.9537L24.3646 13.7776ZM20.1297 20.5647L18.0123 23.9583L31.5866 32.4281L33.704 29.0345L20.1297 20.5647ZM15.8948 27.3519L13.7774 30.7454L27.3517 39.2152L29.4691 35.8217L15.8948 27.3519Z" fill="white"/>
</svg>
