<svg width="55" height="58" viewBox="0 0 55 58" fill="none" xmlns="http://www.w3.org/2000/svg">
<rect x="17" y="8.74392" width="29.8197" height="29.8197" rx="2" transform="rotate(-17.0512 17 8.74392)" fill="#79B7FF"/>
<path d="M37.3204 14.266L5.26599 24.3395L14.0803 52.3871L26.8445 27.9173C27.1021 27.4237 27.5453 27.0526 28.0765 26.8856C28.6077 26.7187 29.1835 26.7695 29.6773 27.0271L43.6226 34.32L37.3204 14.266ZM0.625188 23.5813C0.463509 23.054 0.515751 22.4843 0.770629 21.9952C1.02551 21.5061 1.46256 21.1369 1.98737 20.9673L38.0806 9.62455C39.1785 9.27953 40.3482 9.8915 40.6932 10.9894L50.7755 43.0718C50.9372 43.5991 50.885 44.1688 50.6301 44.6579C50.3752 45.147 49.9381 45.5162 49.4133 45.6857L13.3201 57.0285C12.7927 57.1937 12.2212 57.1427 11.7313 56.8868C11.2415 56.6309 10.8732 56.191 10.7075 55.6637L0.625188 23.5813ZM17.0572 33.8415C15.9945 34.1755 14.8427 34.0736 13.8551 33.5583C12.8675 33.0431 12.1251 32.1566 11.7912 31.0939C11.4572 30.0312 11.5591 28.8794 12.0744 27.8919C12.5896 26.9043 13.4761 26.1619 14.5388 25.8279C15.6014 25.494 16.7533 25.5958 17.7408 26.1111C18.7284 26.6264 19.4708 27.5129 19.8048 28.5755C20.1387 29.6382 20.0369 30.79 19.5216 31.7776C19.0063 32.7651 18.1198 33.5076 17.0572 33.8415Z" fill="white"/>
</svg>
