<svg width="56" height="49" viewBox="0 0 56 49" fill="none" xmlns="http://www.w3.org/2000/svg">
<rect y="9.70715" width="29.8197" height="29.8197" rx="2" transform="rotate(-18.9976 0 9.70715)" fill="#FF8AC9"/>
<path d="M10.6625 16.8804C10.2969 15.8472 10.839 14.7113 11.8723 14.3457L42.066 3.66245C43.0992 3.29687 44.2351 3.83903 44.6007 4.87226L55.284 35.066C55.4591 35.5625 55.4301 36.1083 55.2033 36.5835C54.9765 37.0587 54.5704 37.4245 54.0742 37.6007L23.8804 48.284C23.3839 48.4591 22.8381 48.4301 22.3629 48.2033C21.8877 47.9764 21.5219 47.5704 21.3457 47.0742L10.6625 16.8804ZM27.9834 20.1331C27.8432 20.0976 27.6959 20.1007 27.5573 20.1422C27.4186 20.1838 27.2939 20.2621 27.1963 20.3689C27.0987 20.4757 27.0318 20.607 27.0029 20.7488C26.974 20.8906 26.9841 21.0376 27.0321 21.1741L31.3724 33.4408C31.421 33.5772 31.5055 33.6978 31.6172 33.7898C31.7288 33.8819 31.8633 33.9419 32.0064 33.9636C32.1495 33.9852 32.2957 33.9677 32.4296 33.9128C32.5635 33.8579 32.68 33.7677 32.7667 33.6519L39.7963 24.2655C39.8754 24.16 39.9272 24.0367 39.9472 23.9064C39.9671 23.7761 39.9545 23.6429 39.9105 23.5186C39.8666 23.3943 39.7926 23.2829 39.6951 23.1941C39.5977 23.1053 39.4798 23.042 39.352 23.0098L27.9815 20.1338L27.9834 20.1331Z" fill="white"/>
</svg>
