<svg width="56" height="63" viewBox="0 0 56 63" fill="none" xmlns="http://www.w3.org/2000/svg">
<rect x="20.7178" width="29.8197" height="29.8197" rx="2" transform="rotate(15 20.7178 0)" fill="#FFD568"/>
<path d="M55.7637 22.7411L44.9019 53.5406C44.2183 55.4775 42.9147 57.1347 41.1933 58.2553C39.4719 59.3759 37.4289 59.8972 35.3811 59.7383C33.3332 59.5795 31.395 58.7494 29.867 57.3768C28.339 56.0041 27.3066 54.1657 26.9299 52.1465C26.5532 50.1274 26.8533 48.0403 27.7835 46.2091C28.7138 44.3778 30.2223 42.9047 32.0751 42.0181C33.928 41.1316 36.0215 40.8811 38.0312 41.3056C40.0408 41.7301 41.8543 42.8059 43.1902 44.366L49.0362 27.7893L29.2365 20.8067L20.7022 45.0063C20.0187 46.9432 18.7151 48.6004 16.9937 49.721C15.2723 50.8416 13.2293 51.3629 11.1814 51.204C9.1336 51.0452 7.19539 50.2151 5.66739 48.8424C4.13939 47.4698 3.10699 45.6314 2.73029 43.6122C2.35359 41.5931 2.65365 39.506 3.58393 37.6748C4.51421 35.8435 6.02273 34.3704 7.87553 33.4838C9.72834 32.5973 11.8219 32.3468 13.8316 32.7713C15.8412 33.1958 17.6546 34.2716 18.9906 35.8317L27.1642 12.6551L55.7637 22.7411Z" fill="white"/>
</svg>
