<svg width="28" height="28" viewBox="0 0 28 28" fill="none" xmlns="http://www.w3.org/2000/svg">
<g clip-path="url(#clip0_0_23)">
<path d="M24 10.1666V24.1585C24.0011 24.3117 23.972 24.4636 23.9143 24.6056C23.8567 24.7475 23.7717 24.8767 23.6641 24.9858C23.5565 25.0949 23.4285 25.1818 23.2873 25.2414C23.1462 25.301 22.9947 25.3322 22.8415 25.3333H4.1585C3.85145 25.3333 3.55696 25.2114 3.33973 24.9944C3.1225 24.7774 3.00031 24.483 3 24.176V3.1573C3 2.5308 3.5215 1.99997 4.16433 1.99997H15.8333V8.99997C15.8333 9.30939 15.9562 9.60614 16.175 9.82493C16.3938 10.0437 16.6906 10.1666 17 10.1666H24ZM24 7.8333H18.1667V2.00347L24 7.8333ZM8.83333 7.8333V10.1666H12.3333V7.8333H8.83333ZM8.83333 12.5V14.8333H18.1667V12.5H8.83333ZM8.83333 17.1666V19.5H18.1667V17.1666H8.83333Z" fill="#00DD16"/>
</g>
<defs>
<clipPath id="clip0_0_23">
<rect width="28" height="28" fill="white"/>
</clipPath>
</defs>
</svg>
