<svg width="64" height="64" viewBox="0 0 64 64" fill="none" xmlns="http://www.w3.org/2000/svg">
<rect width="64" height="64" rx="16" fill="#00DD16" fill-opacity="0.06"/>
<g clip-path="url(#clip0_505_897)">
<path d="M42 28.1666V42.1585C42.0011 42.3117 41.972 42.4636 41.9143 42.6056C41.8567 42.7475 41.7717 42.8767 41.6641 42.9858C41.5565 43.0949 41.4285 43.1818 41.2873 43.2414C41.1462 43.301 40.9947 43.3322 40.8415 43.3333H22.1585C21.8514 43.3333 21.557 43.2114 21.3397 42.9944C21.1225 42.7774 21.0003 42.483 21 42.176V21.1573C21 20.5308 21.5215 20 22.1643 20H33.8333V27C33.8333 27.3094 33.9562 27.6061 34.175 27.8249C34.3938 28.0437 34.6906 28.1666 35 28.1666H42ZM42 25.8333H36.1667V20.0035L42 25.8333ZM26.8333 25.8333V28.1666H30.3333V25.8333H26.8333ZM26.8333 30.5V32.8333H36.1667V30.5H26.8333ZM26.8333 35.1666V37.5H36.1667V35.1666H26.8333Z" fill="#00DD16"/>
</g>
<defs>
<clipPath id="clip0_505_897">
<rect width="28" height="28" fill="white" transform="translate(18 18)"/>
</clipPath>
</defs>
</svg>
