<svg width="25" height="22" viewBox="0 0 25 22" fill="none" xmlns="http://www.w3.org/2000/svg">
<path d="M21.9333 2.60001H2.73325V19.4L13.8837 8.24721C14.1087 8.02225 14.4139 7.89587 14.7321 7.89587C15.0502 7.89587 15.3554 8.02225 15.5805 8.24721L21.9333 14.612V2.60001ZM0.333252 1.39161C0.335448 1.07647 0.461532 0.774833 0.684267 0.551873C0.907003 0.328914 1.20851 0.202526 1.52365 0.200012H23.1429C23.8005 0.200012 24.3333 0.734012 24.3333 1.39161V20.6084C24.3311 20.9236 24.205 21.2252 23.9822 21.4481C23.7595 21.6711 23.458 21.7975 23.1429 21.8H1.52365C1.20783 21.7997 0.905048 21.674 0.681839 21.4506C0.45863 21.2271 0.333252 20.9242 0.333252 20.6084V1.39161ZM7.53325 9.80001C6.89673 9.80001 6.28628 9.54716 5.8362 9.09707C5.38611 8.64698 5.13325 8.03653 5.13325 7.40001C5.13325 6.76349 5.38611 6.15304 5.8362 5.70296C6.28628 5.25287 6.89673 5.00001 7.53325 5.00001C8.16977 5.00001 8.78022 5.25287 9.23031 5.70296C9.6804 6.15304 9.93325 6.76349 9.93325 7.40001C9.93325 8.03653 9.6804 8.64698 9.23031 9.09707C8.78022 9.54716 8.16977 9.80001 7.53325 9.80001Z" fill="#00B5DD"/>
</svg>
