<svg width="65" height="64" viewBox="0 0 65 64" fill="none" xmlns="http://www.w3.org/2000/svg">
<rect x="0.333252" width="64" height="64" rx="16" fill="#0073DD" fill-opacity="0.06"/>
<path d="M41.9333 23.6H22.7333V40.4L33.8837 29.2472C34.1087 29.0222 34.4139 28.8959 34.7321 28.8959C35.0502 28.8959 35.3554 29.0222 35.5805 29.2472L41.9333 35.612V23.6ZM20.3333 22.3916C20.3354 22.0765 20.4615 21.7748 20.6843 21.5519C20.907 21.3289 21.2085 21.2025 21.5237 21.2H43.1429C43.8005 21.2 44.3333 21.734 44.3333 22.3916V41.6084C44.3311 41.9236 44.205 42.2252 43.9822 42.4481C43.7595 42.6711 43.458 42.7975 43.1429 42.8H21.5237C21.2078 42.7997 20.905 42.674 20.6818 42.4506C20.4586 42.2271 20.3333 41.9242 20.3333 41.6084V22.3916ZM27.5333 30.8C26.8967 30.8 26.2863 30.5472 25.8362 30.0971C25.3861 29.647 25.1333 29.0365 25.1333 28.4C25.1333 27.7635 25.3861 27.153 25.8362 26.703C26.2863 26.2529 26.8967 26 27.5333 26C28.1698 26 28.7802 26.2529 29.2303 26.703C29.6804 27.153 29.9333 27.7635 29.9333 28.4C29.9333 29.0365 29.6804 29.647 29.2303 30.0971C28.7802 30.5472 28.1698 30.8 27.5333 30.8Z" fill="#00B5DD"/>
</svg>
