<svg width="201" height="226" viewBox="0 0 201 226" fill="none" xmlns="http://www.w3.org/2000/svg">
<path d="M98.6855 8.14369C112.715 9.7007 126.331 14.0625 138.708 21.0132C154.484 29.873 167.717 42.6413 177.134 58.0912C186.551 73.5411 191.836 91.1534 192.482 109.235C193.127 127.318 189.111 145.262 180.82 161.344C172.529 177.426 160.241 191.106 145.137 201.068C130.033 211.031 112.621 216.941 94.573 218.231C76.5254 219.522 58.4492 216.149 42.0814 208.437C29.2405 202.387 17.7896 193.825 8.38347 183.3C7.13976 181.908 7.07287 179.155 9.52383 177.409C11.5881 175.939 15.2123 176.076 17.8549 178.853C25.969 187.379 35.617 194.36 46.3345 199.41C61.1542 206.393 77.5207 209.447 93.8613 208.278C110.202 207.11 125.967 201.759 139.643 192.739C153.318 183.718 164.444 171.333 171.951 156.772C179.458 142.211 183.094 125.963 182.51 109.592C181.925 93.2196 177.14 77.2732 168.613 63.2846C160.087 49.296 148.106 37.7353 133.822 29.7135C123.492 23.9122 112.208 20.1027 100.557 18.4383C96.7624 17.8962 94.5488 15.0233 94.5488 12.4892C94.5488 9.48036 96.8304 7.93782 98.6855 8.14369Z" stroke="url(#paint0_linear_0_16)" stroke-width="15"/>
<defs>
<linearGradient id="paint0_linear_0_16" x1="-47.3768" y1="-32.3933" x2="225.046" y2="224.334" gradientUnits="userSpaceOnUse">
<stop offset="0.135888" stop-color="#9D79FF"/>
<stop offset="0.911426" stop-color="#7747FD"/>
</linearGradient>
</defs>
</svg>
