<svg width="64" height="64" viewBox="0 0 64 64" fill="none" xmlns="http://www.w3.org/2000/svg">
<rect width="64" height="64" rx="16" fill="#DD8400" fill-opacity="0.06"/>
<g clip-path="url(#clip0_0_38)">
<path d="M42.6666 20V38.6667C42.6663 39.8407 42.2787 40.9818 41.5638 41.913C40.849 42.8443 39.8468 43.5136 38.7128 43.8173C37.5787 44.121 36.3762 44.042 35.2916 43.5925C34.207 43.1431 33.301 42.3484 32.7142 41.3316C32.1273 40.3148 31.8923 39.1328 32.0456 37.9689C32.1989 36.8049 32.732 35.7241 33.5622 34.894C34.3924 34.0639 35.4733 33.5309 36.6373 33.3777C37.8012 33.2245 38.9832 33.4597 39.9999 34.0467V24H27.9999V38.6667C27.9997 39.8407 27.612 40.9818 26.8972 41.913C26.1823 42.8443 25.1801 43.5136 24.0461 43.8173C22.912 44.121 21.7095 44.042 20.6249 43.5925C19.5404 43.1431 18.6344 42.3484 18.0475 41.3316C17.4606 40.3148 17.2256 39.1328 17.3789 37.9689C17.5323 36.8049 18.0654 35.7241 18.8956 34.894C19.7258 34.0639 20.8066 33.5309 21.9706 33.3777C23.1346 33.2245 24.3165 33.4597 25.3333 34.0467V20H42.6666Z" fill="#DDAC00"/>
</g>
<defs>
<clipPath id="clip0_0_38">
<rect width="32" height="32" fill="white" transform="translate(16 16)"/>
</clipPath>
</defs>
</svg>
