<svg width="32" height="32" viewBox="0 0 32 32" fill="none" xmlns="http://www.w3.org/2000/svg">
<g clip-path="url(#clip0_0_39)">
<path d="M26.6666 4V22.6667C26.6663 23.8407 26.2787 24.9818 25.5638 25.913C24.849 26.8443 23.8468 27.5136 22.7128 27.8173C21.5787 28.121 20.3762 28.042 19.2916 27.5925C18.207 27.1431 17.301 26.3484 16.7142 25.3316C16.1273 24.3148 15.8923 23.1328 16.0456 21.9689C16.1989 20.8049 16.732 19.7241 17.5622 18.894C18.3924 18.0639 19.4733 17.5309 20.6373 17.3777C21.8012 17.2245 22.9832 17.4597 23.9999 18.0467V8H11.9999V22.6667C11.9997 23.8407 11.612 24.9818 10.8972 25.913C10.1823 26.8443 9.18014 27.5136 8.04609 27.8173C6.91205 28.121 5.70949 28.042 4.62492 27.5925C3.54035 27.1431 2.63438 26.3484 2.04749 25.3316C1.46061 24.3148 1.22561 23.1328 1.37895 21.9689C1.53228 20.8049 2.06538 19.7241 2.89557 18.894C3.72576 18.0639 4.80664 17.5309 5.9706 17.3777C7.13456 17.2245 8.31655 17.4597 9.33326 18.0467V4H26.6666Z" fill="#DDAC00"/>
</g>
<defs>
<clipPath id="clip0_0_39">
<rect width="32" height="32" fill="white"/>
</clipPath>
</defs>
</svg>
