<svg width="33" height="32" viewBox="0 0 33 32" fill="none" xmlns="http://www.w3.org/2000/svg">
<g clip-path="url(#clip0_0_33)">
<path d="M4.66675 5.324C4.66675 4.59333 5.26008 4 5.99075 4H27.3427C28.0734 4 28.6667 4.59333 28.6667 5.324V26.676C28.6664 27.027 28.5268 27.3636 28.2786 27.6118C28.0303 27.86 27.6938 27.9996 27.3427 28H5.99075C5.63971 27.9996 5.30315 27.86 5.05493 27.6118C4.80671 27.3636 4.6671 27.027 4.66675 26.676V5.324ZM14.8294 11.22C14.7492 11.1665 14.6559 11.1357 14.5596 11.131C14.4632 11.1262 14.3674 11.1477 14.2823 11.1931C14.1972 11.2386 14.126 11.3062 14.0763 11.3889C14.0266 11.4716 14.0003 11.5662 14.0001 11.6627V20.3373C14.0003 20.4338 14.0266 20.5284 14.0763 20.6111C14.126 20.6938 14.1972 20.7614 14.2823 20.8069C14.3674 20.8523 14.4632 20.8738 14.5596 20.869C14.6559 20.8643 14.7492 20.8335 14.8294 20.78L21.3347 16.444C21.4079 16.3953 21.4679 16.3293 21.5094 16.2518C21.5509 16.1744 21.5726 16.0879 21.5726 16C21.5726 15.9121 21.5509 15.8256 21.5094 15.7482C21.4679 15.6707 21.4079 15.6047 21.3347 15.556L14.8281 11.22H14.8294Z" fill="#DD004F"/>
</g>
<defs>
<clipPath id="clip0_0_33">
<rect width="32" height="32" fill="white" transform="translate(0.666748)"/>
</clipPath>
</defs>
</svg>
