<svg width="65" height="64" viewBox="0 0 65 64" fill="none" xmlns="http://www.w3.org/2000/svg">
<rect x="0.666748" width="64" height="64" rx="16" fill="#DD0092" fill-opacity="0.06"/>
<g clip-path="url(#clip0_0_32)">
<path d="M20.6667 21.324C20.6667 20.5933 21.2601 20 21.9907 20H43.3427C44.0734 20 44.6667 20.5933 44.6667 21.324V42.676C44.6664 43.027 44.5268 43.3636 44.2786 43.6118C44.0303 43.86 43.6938 43.9996 43.3427 44H21.9907C21.6397 43.9996 21.3032 43.86 21.0549 43.6118C20.8067 43.3636 20.6671 43.027 20.6667 42.676V21.324ZM30.8294 27.22C30.7492 27.1665 30.6559 27.1357 30.5596 27.131C30.4632 27.1262 30.3674 27.1477 30.2823 27.1931C30.1972 27.2386 30.126 27.3062 30.0763 27.3889C30.0266 27.4716 30.0003 27.5662 30.0001 27.6627V36.3373C30.0003 36.4338 30.0266 36.5284 30.0763 36.6111C30.126 36.6938 30.1972 36.7614 30.2823 36.8069C30.3674 36.8523 30.4632 36.8738 30.5596 36.869C30.6559 36.8643 30.7492 36.8335 30.8294 36.78L37.3347 32.444C37.4079 32.3953 37.4679 32.3293 37.5094 32.2518C37.5509 32.1744 37.5726 32.0879 37.5726 32C37.5726 31.9121 37.5509 31.8256 37.5094 31.7482C37.4679 31.6707 37.4079 31.6047 37.3347 31.556L30.8281 27.22H30.8294Z" fill="#DD004F"/>
</g>
<defs>
<clipPath id="clip0_0_32">
<rect width="32" height="32" fill="white" transform="translate(16.6667 16)"/>
</clipPath>
</defs>
</svg>
