<svg width="32" height="32" viewBox="0 0 32 32" fill="none" xmlns="http://www.w3.org/2000/svg">
<path d="M21.4557 10.7953C19.6792 10.7952 17.945 11.337 16.4846 12.3485C15.0243 13.3601 13.9073 14.7931 13.2829 16.4562L15.3269 17.2229C15.8668 15.7891 16.8925 14.59 18.2254 13.8345C19.5584 13.079 21.114 12.815 22.6216 13.0884C24.1291 13.3617 25.4931 14.1552 26.4758 15.3306C27.4586 16.5061 27.998 17.9889 28 19.5211C28 21.2567 27.3105 22.9213 26.0832 24.1486C24.8559 25.3759 23.1913 26.0654 21.4557 26.0654H10.5485C9.00315 26.0664 7.50736 25.5205 6.32593 24.5244C5.1445 23.5283 4.35367 22.1463 4.09346 20.6231C3.83325 19.0998 4.12046 17.5336 4.90422 16.2019C5.68799 14.8701 6.91774 13.8586 8.37574 13.3465C8.28231 11.4624 8.88969 9.61043 10.0808 8.1476C11.2719 6.68477 12.9623 5.71467 14.8262 5.42432C16.6902 5.13396 18.5956 5.54392 20.1752 6.57514C21.7548 7.60637 22.8967 9.18585 23.3808 11.0091C22.749 10.8668 22.1033 10.7951 21.4557 10.7953V10.7953Z" fill="url(#paint0_linear_0_68)"/>
<defs>
<linearGradient id="paint0_linear_0_68" x1="-0.96" y1="2.36171" x2="23.6554" y2="31.9592" gradientUnits="userSpaceOnUse">
<stop offset="0.135888" stop-color="#9D79FF"/>
<stop offset="0.911426" stop-color="#7747FD"/>
</linearGradient>
</defs>
</svg>
