<svg width="32" height="32" viewBox="0 0 32 32" fill="none" xmlns="http://www.w3.org/2000/svg">
<path d="M11.9951 17.0411L12.3467 16.1047C13.0426 14.251 14.2876 12.6539 15.9152 11.5265C17.5428 10.3992 19.4756 9.79521 21.4554 9.79531L11.9951 17.0411ZM11.9951 17.0411L12.9317 17.3924M11.9951 17.0411L12.9317 17.3924M12.9317 17.3924L14.9757 18.1592L15.9108 18.51M12.9317 17.3924L15.9108 18.51M15.9108 18.51L16.2628 17.5753M15.9108 18.51L16.2628 17.5753M16.2628 17.5753C16.7202 16.3605 17.5892 15.3446 18.7185 14.7045C19.8479 14.0644 21.1659 13.8407 22.4432 14.0723C23.7204 14.3039 24.876 14.9762 25.7086 15.9721C26.5413 16.9679 26.9982 18.2243 27 19.5223L16.2628 17.5753ZM27 19.5224C26.9996 20.9924 26.4156 22.4021 25.3761 23.4415C24.3363 24.4813 22.9261 25.0654 21.4557 25.0654H10.5485H10.5478C9.23865 25.0662 7.97142 24.6038 6.97052 23.7599C5.96962 22.916 5.29963 21.7452 5.07918 20.4547C4.85873 19.1642 5.10205 17.8373 5.76606 16.709C6.43006 15.5808 7.4719 14.7238 8.70711 14.29L9.41148 14.0426L9.37451 13.297C9.29332 11.6597 9.82115 10.0502 10.8562 8.779C11.8913 7.50777 13.3604 6.66473 14.9802 6.4124C16.6 6.16008 18.2558 6.51633 19.6285 7.4125C20.5569 8.01855 21.3112 8.8425 21.8325 9.80251C21.707 9.79769 21.5814 9.79528 21.4558 9.79531L27 19.5224Z" fill="white" stroke="#7747FD" stroke-width="2"/>
</svg>
