<svg width="32" height="32" viewBox="0 0 32 32" fill="none" xmlns="http://www.w3.org/2000/svg">
<path d="M12.808 26.41V22.9666C12.808 22.0908 13.522 21.3792 14.4067 21.3733H17.6472C18.5361 21.3733 19.2566 22.0866 19.2566 22.9666V22.9666V26.4207C19.2564 27.1643 19.8559 27.772 20.6068 27.7895H22.7672C24.9208 27.7895 26.6666 26.0611 26.6666 23.9291V23.9291V14.1337C26.6551 13.2949 26.2573 12.5073 25.5864 11.995L18.1981 6.10277C16.9037 5.07683 15.0637 5.07683 13.7694 6.10277L6.41342 12.0057C5.74 12.5159 5.34155 13.3049 5.33325 14.1444V23.9291C5.33325 26.0611 7.07908 27.7895 9.23266 27.7895H11.393C12.1626 27.7895 12.7864 27.1718 12.7864 26.41V26.41" stroke="#7747FD" stroke-width="2" stroke-linecap="round" stroke-linejoin="round"/>
</svg>
