<svg width="20" height="18" viewBox="0 0 20 18" fill="none" xmlns="http://www.w3.org/2000/svg">
<path d="M5.7215 15.1618C7.00169 16.3099 8.64551 17 10.4383 17C14.5227 17 17.8336 13.4183 17.8336 9C17.8336 8.43095 17.7787 7.87578 17.6743 7.34036M5.7215 15.1618C4.08525 13.6944 3.04304 11.4789 3.04304 9C3.04304 4.58172 6.35403 1 10.4383 1C13.9966 1 16.9679 3.71853 17.6743 7.34036M5.7215 15.1618C7.52922 14.7147 9.6798 13.7828 11.8489 12.4281C14.3729 10.8517 16.4259 9.01248 17.6743 7.34036M5.7215 15.1618C3.47594 15.7171 1.75946 15.5243 1.19377 14.4644C0.611097 13.3726 1.37556 11.5969 3.04291 9.70898M17.6743 7.34036C18.8315 5.79041 19.2974 4.38405 18.8062 3.46374C18.3081 2.53051 16.9179 2.26939 15.06 2.59929" stroke="black" stroke-width="2" stroke-linecap="round" stroke-linejoin="round"/>
</svg>
